# xmcd CD Database Entry
#
# Track frame offsets:
# 150
# 16462
# 41092
#
# Disc length: 988 seconds
#
# Revision: 2
# Processed by: cddbd v1.5.2PL0 Copyright (c) Steve Scherf et al.
# Submitted via: tcd 2.0b
#
DISCID=1e03da03
DTITLE=The GOSPELLERS - ひとり
DYEAR=1900
DGENRE=
TTITLE0=ひとり
TTITLE1=東京スヰート
TTITLE2=永遠に - unplugged live version -
EXTD=
EXTT0=
EXTT1=
EXTT2=
PLAYORDER=
